<svg xmlns="http://www.w3.org/2000/svg" viewBox="0 0 199.68 198.71"><defs><style>.cls-1{fill:#88e7b9;}</style></defs><title>Asset 5</title><g id="Layer_2" data-name="Layer 2"><g id="Layer_2-2" data-name="Layer 2"><g id="social_distancing-protection-protect-face_shield-face_mask" data-name="social distancing-protection-protect-face shield-face mask"><path class="cls-1" d="M176.38,125.49H174a26.66,26.66,0,0,0,8.85-16.64H183a10,10,0,0,0,10-10,9.86,9.86,0,0,0-4.06-8,3.33,3.33,0,0,0,.74-2V85.55a33.28,33.28,0,0,0-66.56,0v3.33a3.25,3.25,0,0,0,.73,2,9.89,9.89,0,0,0-4.06,8,10,10,0,0,0,10,10H130a26.61,26.61,0,0,0,8.85,16.64h-2.43a23.33,23.33,0,0,0-23.3,23.3v46.59a3.33,3.33,0,0,0,3.33,3.33h79.87a3.33,3.33,0,0,0,3.33-3.33V148.79A23.32,23.32,0,0,0,176.38,125.49Zm10-26.62a3.33,3.33,0,0,1-3.33,3.32V95.54A3.33,3.33,0,0,1,186.37,98.87Zm-56.58,3.32a3.33,3.33,0,1,1,0-6.65Zm0-16.64a26.63,26.63,0,0,1,53.25,0h-2.16L165.14,73a3.29,3.29,0,0,0-3.43-.43l-29.29,13ZM136.45,91l26.12-11.61,13.81,11V101.1l-19.06-5.43a3.24,3.24,0,0,0-1.8,0l-19.07,5.43Zm.17,16.94,19.8-5.65,19.8,5.65a20,20,0,0,1-39.6,0ZM193,192.05H119.81V148.79a16.64,16.64,0,0,1,16.64-16.64h39.93A16.64,16.64,0,0,1,193,148.79Z"/><path class="cls-1" d="M63.23,125.49H60.8a26.67,26.67,0,0,0,8.86-16.64h.23a10,10,0,0,0,10-10,9.89,9.89,0,0,0-4.06-8,3.25,3.25,0,0,0,.73-2V85.55a33.28,33.28,0,0,0-66.56,0v3.33a3.33,3.33,0,0,0,.74,2,9.89,9.89,0,0,0-4.06,8,10,10,0,0,0,10,10h.23a26.67,26.67,0,0,0,8.86,16.64H23.3A23.32,23.32,0,0,0,0,148.79v46.59a3.33,3.33,0,0,0,3.33,3.33H83.2a3.33,3.33,0,0,0,3.33-3.33V148.79A23.33,23.33,0,0,0,63.23,125.49Zm10-26.62a3.33,3.33,0,0,1-3.33,3.32V95.54A3.33,3.33,0,0,1,73.22,98.87Zm-56.58,3.32a3.33,3.33,0,1,1,0-6.65Zm0-16.64a26.63,26.63,0,0,1,53.25,0H67.46L44.93,72.67a3.51,3.51,0,0,0-3.33,0L19.07,85.55Zm6.66,5.26,20-11.41,20,11.41V101.1L44.16,95.67a3.21,3.21,0,0,0-1.79,0L23.3,101.1ZM23.46,108l19.8-5.65L63.07,108a20,20,0,0,1-39.61,0Zm56.41,84.07H6.66V148.79A16.64,16.64,0,0,1,23.3,132.15H63.23a16.64,16.64,0,0,1,16.64,16.64Z"/><path class="cls-1" d="M57.55,31.33l4.71-4.71L54.63,19h90.42l-7.63,7.63,4.71,4.71L155.44,18a3.33,3.33,0,0,0,0-4.71L142.13,0l-4.71,4.71,7.63,7.63H54.63l7.63-7.63L57.55,0,44.24,13.31a3.33,3.33,0,0,0,0,4.71Z"/><path class="cls-1" d="M79.87,45.62v6.65H96.51v6.66h-20a3.33,3.33,0,0,1-3.32-3.33V42.29A3.33,3.33,0,0,1,76.54,39H89.86V32.31H73.22V25.65h20A3.33,3.33,0,0,1,96.51,29V42.29a3.33,3.33,0,0,1-3.33,3.33Z"/><path class="cls-1" d="M129.79,29v30h-6.65V39l-4,5.33a3.46,3.46,0,0,1-4.88.44,3.05,3.05,0,0,1-.44-.44l-4-5.33v20h-6.65V29a3.33,3.33,0,0,1,6-2l7.32,9.75L123.8,27a3.33,3.33,0,0,1,6,2Z"/></g></g></g></svg>