<svg xmlns="http://www.w3.org/2000/svg" viewBox="0 0 182.12 182.11"><defs><style>.cls-1{fill:#88e7b9;}</style></defs><title>Asset 4</title><g id="Layer_2" data-name="Layer 2"><g id="Layer_2-2" data-name="Layer 2"><g id="facemask-virus-covid19-corona-mask"><path class="cls-1" d="M174.18,12.21,169.9,7.93a27.13,27.13,0,0,0-38.33,0L116.65,22.85l-5-5a9.12,9.12,0,0,0-11.48-1.09L74.72,34.06A153.57,153.57,0,0,0,34.06,74.72l-17.3,25.44a9.12,9.12,0,0,0,1.09,11.48l5,5L7.93,131.57a27.13,27.13,0,0,0,0,38.33l4.28,4.28a27.14,27.14,0,0,0,38.34,0l14.92-14.91,5,5A9.15,9.15,0,0,0,82,165.35l25.43-17.3a153.28,153.28,0,0,0,40.66-40.66L165.35,82a9.15,9.15,0,0,0-1.08-11.49l-5-5,14.91-14.92a27.12,27.12,0,0,0,0-38.34ZM46.3,169.9a21.12,21.12,0,0,1-29.84,0l-4.25-4.24a21.12,21.12,0,0,1,0-29.84L27.13,120.9,29.24,123,14.32,138a18.09,18.09,0,0,0,0,25.56l4.28,4.27a18.11,18.11,0,0,0,25.56,0l14.92-14.91L61.22,155ZM33.52,127.29,54.83,148.6,39.91,163.52a12.08,12.08,0,0,1-17.06,0l-4.25-4.25a12.08,12.08,0,0,1,0-17.06ZM160,74.75a3,3,0,0,1,.36,3.83L143.08,104A148,148,0,0,1,104,143.08L78.58,160.35a3,3,0,0,1-3.83-.36l-13.53-13.5v0L48.44,133.68,22.13,107.36a3,3,0,0,1-.36-3.82L39,78.13A148,148,0,0,1,78.13,39l25.41-17.27a2.9,2.9,0,0,1,1.71-.52,3,3,0,0,1,2.11.88l13.54,13.5v0Zm-32.7-41.23L142.21,18.6a12.08,12.08,0,0,1,17.06,0l4.25,4.25a12.08,12.08,0,0,1,0,17.06L148.6,54.83ZM155,61.22l-2.11-2.14,14.91-14.92a18.07,18.07,0,0,0,0-25.56l-4.27-4.28a18.12,18.12,0,0,0-25.56,0L123,29.24l-2.14-2.11,14.92-14.92a21.12,21.12,0,0,1,29.84,0l4.24,4.25a21.12,21.12,0,0,1,0,29.84Z"/><path class="cls-1" d="M131.55,63.35a3,3,0,0,0-4.26,0L63.35,127.29a3,3,0,0,0,4.19,4.34l.08-.08,63.93-63.93a3,3,0,0,0,0-4.27Z"/><path class="cls-1" d="M118.76,50.57a3,3,0,0,0-4.26,0L50.57,114.5a3,3,0,0,0,4.18,4.34l.08-.08,63.93-63.93a3,3,0,0,0,0-4.26Z"/><path class="cls-1" d="M106,37.78a3,3,0,0,0-4.27,0L37.78,101.72A3,3,0,1,0,42,106.05L42,106,106,42a3,3,0,0,0,0-4.26Z"/><path class="cls-1" d="M76.14,140.08a3,3,0,0,0,4.19,4.33l.07-.07L144.34,80.4a3,3,0,1,0-4.19-4.33.46.46,0,0,0-.07.07Z"/></g></g></g></svg>