<svg xmlns="http://www.w3.org/2000/svg" viewBox="0 0 178 178"><defs><style>.cls-1{fill:#88e7b9;}</style></defs><title>Asset 2</title><g id="Layer_2" data-name="Layer 2"><g id="Layer_2-2" data-name="Layer 2"><g id="Outline"><path class="cls-1" d="M170.14,53.4H178v5.93h-8.9a3,3,0,0,1-1.85-.65l-1.68-1.34a124.71,124.71,0,0,0-27.88-16.85L111.6,30.14l-.09,0A5.16,5.16,0,0,0,106.45,39l22.74,14.85a3,3,0,0,1,1.28,1.9h0a38,38,0,0,0,6.28,13.45c6.22,8.34,15,12,26.12,10.89l.59,5.9a41.38,41.38,0,0,1-4.37.22,32.58,32.58,0,0,1-27.24-13.65,44.43,44.43,0,0,1-6.57-13.26h-50V53.4H117.6L103.16,44l-.08,0a11.1,11.1,0,0,1-2.72-15.46,2.64,2.64,0,0,1,.21-.29,11.08,11.08,0,0,1,13.26-3.53L139.93,35l.09,0a130.3,130.3,0,0,1,29.25,17.68ZM59.89,35.6,72.38,95.54l5.81-1.21-12.93-62A32.67,32.67,0,0,0,32.63,0H0V5.93H32.63A26.74,26.74,0,0,1,59.17,29.67h-18a11.87,11.87,0,0,0-11.49-8.9H0V26.7H29.67a5.94,5.94,0,0,1,5.92,5.7L20.82,106.22l5.82,1.16L41,35.6Zm85.65,64.57A130.63,130.63,0,0,0,116.29,82.5l-.07,0-13-5.34h6.58V71.2H81v5.93h2.5c-.19.22-.37.44-.54.67a11.08,11.08,0,0,0,2.22,15.53,1.46,1.46,0,0,0,.24.17L95,100.87H41.53a11.87,11.87,0,0,0-9.08,19.5,11.86,11.86,0,0,0,6.12,22H86v-5.93H38.57a5.94,5.94,0,1,1,0-11.87H86v-5.93H41.53a5.94,5.94,0,0,1,0-11.87h62.3a3,3,0,0,0,1.8-5.33L88.94,88.75l-.1-.07a5.16,5.16,0,0,1,5-9l.06,0,20,8.19a124.23,124.23,0,0,1,27.89,16.86c1,.84,2.09,2,3.54,2H178v-5.93H146.41ZM147,160.51c-6.95,3.48-24.69,11.56-39.34,11.56H53.4a5.94,5.94,0,0,1,0-11.87H86v-5.93H44.5a5.94,5.94,0,0,1-5.93-5.94H32.63a11.9,11.9,0,0,0,10.54,11.8A11.87,11.87,0,0,0,53.4,178h54.27c6.52,0,20.51-1.55,41.36-11.87h29V160.2H148.33A3,3,0,0,0,147,160.51ZM47.83,87.31l2.23-40.05-5.93-.33L41.91,87Zm6-24.4,2.6,32.26,5.91-.47-2.6-32.27Zm-33,55.76a8.9,8.9,0,1,1-8.9-8.9A8.91,8.91,0,0,1,20.77,118.67Zm-5.94,0a3,3,0,1,0-3,3A3,3,0,0,0,14.83,118.67ZM80.1,47.47a8.9,8.9,0,1,1,8.9-8.9A8.9,8.9,0,0,1,80.1,47.47Zm0-5.94a3,3,0,1,0-3-3A3,3,0,0,0,80.1,41.53Zm29.67,106.8a8.9,8.9,0,1,1,8.9-8.9A8.89,8.89,0,0,1,109.77,148.33Zm0-5.93a3,3,0,1,0-3-3A3,3,0,0,0,109.77,142.4Z"/></g></g></g></svg>