<?xml version="1.0" encoding="utf-8"?>
<!-- Generator: Adobe Illustrator 24.0.0, SVG Export Plug-In . SVG Version: 6.00 Build 0)  -->
<svg version="1.1" id="Capa_1" xmlns="http://www.w3.org/2000/svg" xmlns:xlink="http://www.w3.org/1999/xlink" x="0px" y="0px"
	 viewBox="0 0 512 512" style="enable-background:new 0 0 512 512;" xml:space="preserve">
<style type="text/css">
	.st0{fill:#2fd485;}
</style>
<g>
	<g>
		<g>
			<path class="st0" d="M407,248c-69.3,0-125.9-52.7-133.5-120H45c-24.8,0-45,20.2-45,45v270c0,24.8,20.2,45,45,45h392
				c24.8,0,45-20.2,45-45V225.1C460.5,239.6,434.7,248,407,248z M347,278c8.3,0,15,6.7,15,15s-6.7,15-15,15s-15-6.7-15-15
				S338.7,278,347,278z M287,278c8.3,0,15,6.7,15,15s-6.7,15-15,15s-15-6.7-15-15S278.7,278,287,278z M210,413c0,8.3-6.7,15-15,15
				H75c-8.3,0-15-6.7-15-15v-30c0-25.8,13.1-48.7,33.1-62.2C82,309.9,75,294.8,75,278c0-33.1,26.9-60,60-60s60,26.9,60,60
				c0,16.8-7,31.9-18.1,42.8c20,13.5,33.1,36.3,33.1,62.2V413z M407,428H287c-8.3,0-15-6.7-15-15c0-8.3,6.7-15,15-15h120
				c8.3,0,15,6.7,15,15S415.3,428,407,428z M407,368H287c-8.3,0-15-6.7-15-15c0-8.3,6.7-15,15-15h120c8.3,0,15,6.7,15,15
				S415.3,368,407,368z M407,308c-8.3,0-15-6.7-15-15s6.7-15,15-15s15,6.7,15,15S415.3,308,407,308z"/>
		</g>
	</g>
	<g>
		<g>
			<path class="st0" d="M135,248c-16.5,0-30,13.5-30,30s13.5,30,30,30s30-13.5,30-30S151.5,248,135,248z"/>
		</g>
	</g>
	<g>
		<g>
			<path class="st0" d="M135,338c-24.8,0-45,20.2-45,45v15h90v-15C180,358.2,159.8,338,135,338z"/>
		</g>
	</g>
	<g>
		<g>
			<path class="st0" d="M406,8c-57.9,0-104,47.1-104,105s47.1,105,105,105s105-47.1,105-105S463.9,8,406,8z M462.6,93.6l-60,60
				c-5.9,5.9-15.4,5.9-21.2,0l-30-30c-5.9-5.9-5.9-15.4,0-21.2s15.4-5.9,21.2,0l19.4,19.4l49.4-49.4c5.9-5.9,15.4-5.9,21.2,0
				S468.5,87.7,462.6,93.6z"/>
		</g>
	</g>
</g>
</svg>
